<?xml version="1.0" standalone="no"?>
<!DOCTYPE svg PUBLIC "-//W3C//DTD SVG 20010904//EN"
 "http://www.w3.org/TR/2001/REC-SVG-20010904/DTD/svg10.dtd">
<svg version="1.0" xmlns="http://www.w3.org/2000/svg"
 width="1280.000000pt" height="1280.000000pt" viewBox="0 0 1280.000000 1280.000000"
 preserveAspectRatio="xMidYMid meet">
<metadata>
Created by potrace 1.16, written by Peter Selinger 2001-2019
</metadata>
<g transform="translate(0.000000,1280.000000) scale(0.100000,-0.100000)"
fill="#000000" stroke="none">
<path d="M6673 12569 c-76 -13 -136 -44 -186 -98 -64 -68 -90 -142 -91 -261
-1 -131 21 -198 89 -266 56 -57 63 -59 259 -104 162 -38 186 -53 186 -120 0
-57 -22 -103 -66 -136 -31 -24 -48 -29 -110 -32 -66 -4 -81 -1 -141 27 -84 40
-141 97 -149 151 -4 22 -10 40 -14 40 -8 0 -80 -255 -80 -284 0 -15 3 -16 15
-6 11 9 26 3 79 -35 100 -71 175 -98 271 -98 183 0 300 97 350 290 19 74 19
186 -1 252 -18 60 -76 130 -129 156 -36 16 -125 40 -269 71 -98 21 -126 44
-126 105 0 48 27 98 68 125 22 15 46 19 122 19 81 0 103 -4 145 -25 70 -34
133 -95 147 -141 6 -22 14 -39 17 -38 6 0 131 249 131 261 0 4 -13 5 -29 2
-22 -5 -39 2 -77 29 -138 98 -281 138 -411 116z"/>
<path d="M5825 12533 c-16 -1 -54 -6 -82 -9 -38 -4 -53 -10 -53 -21 0 -8 9
-17 19 -20 29 -7 38 -42 55 -223 9 -91 32 -318 51 -505 34 -339 34 -340 15
-367 -33 -46 -27 -51 48 -44 188 18 193 20 150 55 -19 16 -22 34 -34 187 -21
278 -44 630 -51 771 -6 126 -5 131 16 144 40 26 25 39 -41 38 -35 -1 -76 -4
-93 -6z"/>
<path d="M4950 12396 c-82 -18 -293 -71 -385 -98 -152 -44 -195 -60 -195 -74
0 -8 8 -14 18 -14 40 0 42 -4 182 -445 21 -66 70 -220 109 -341 39 -122 71
-229 71 -238 0 -9 -6 -25 -12 -36 -23 -37 3 -39 97 -10 50 16 98 29 108 29 26
1 21 30 -7 41 -27 10 -26 7 -105 284 -22 77 -38 143 -36 146 2 3 49 17 104 30
86 20 102 21 117 9 31 -26 254 -329 260 -354 4 -15 1 -32 -6 -41 -25 -29 5
-32 120 -10 88 17 116 27 118 39 2 10 -3 17 -10 17 -20 0 -55 40 -128 145 -35
50 -92 130 -128 178 -35 48 -63 89 -61 90 113 76 150 135 157 247 10 177 -61
341 -171 394 -49 23 -140 28 -217 12z m135 -198 c37 -16 67 -81 73 -154 4 -56
2 -63 -24 -93 -26 -29 -46 -37 -203 -77 -95 -24 -178 -44 -185 -44 -10 0 -86
246 -86 281 0 12 30 24 123 48 214 55 255 61 302 39z"/>
<path d="M7876 12379 c-165 -39 -316 -216 -378 -444 -29 -109 -32 -349 -4
-440 43 -144 133 -253 244 -296 43 -17 79 -23 147 -23 83 -1 97 2 180 37 106
45 135 54 135 38 0 -6 5 -11 10 -11 6 0 10 20 10 43 0 79 -13 227 -20 227 -3
0 -14 -16 -23 -36 -14 -28 -32 -42 -85 -67 -61 -29 -76 -32 -162 -32 -86 0
-100 3 -142 28 -121 71 -172 236 -134 428 44 218 178 354 346 352 93 -1 168
-32 234 -97 72 -69 100 -125 91 -179 l-7 -42 101 100 c101 100 117 122 82 112
-25 -6 -29 -3 -93 83 -97 132 -182 193 -306 219 -62 13 -170 13 -226 0z"/>
<path d="M3518 11903 c-76 -36 -138 -70 -138 -74 0 -5 13 -15 30 -24 16 -8 35
-25 41 -36 6 -12 22 -96 35 -188 30 -207 73 -440 125 -685 27 -123 39 -200 35
-221 -4 -19 -3 -35 1 -38 14 -7 210 108 205 121 -2 6 -10 12 -17 12 -35 0 -55
36 -75 134 -11 54 -20 106 -20 116 0 12 39 35 139 83 76 36 150 69 163 72 21
5 34 -3 84 -55 87 -91 96 -107 89 -157 -4 -24 -3 -43 1 -43 25 0 244 97 244
108 0 7 -13 18 -30 23 -19 7 -62 50 -121 122 -150 180 -292 336 -521 573 -123
126 -139 151 -119 183 9 14 4 41 -8 41 -3 0 -68 -30 -143 -67z m252 -395 c64
-68 131 -139 148 -160 l32 -36 -117 -56 c-64 -31 -120 -53 -123 -49 -4 5 -19
87 -34 183 -15 96 -29 190 -32 208 -3 17 -2 32 2 32 4 0 60 -55 124 -122z"/>
<path d="M9044 11936 c-243 -90 -435 -412 -436 -731 0 -134 23 -219 81 -293
67 -85 185 -142 292 -142 244 0 558 306 634 618 27 110 18 242 -23 325 -95
193 -350 297 -548 223z m212 -191 c67 -20 126 -72 155 -137 74 -169 -37 -441
-237 -579 -121 -83 -251 -77 -331 14 -157 179 9 623 262 703 54 17 92 17 151
-1z"/>
<path d="M2685 11434 c-27 -20 -89 -63 -137 -96 -66 -47 -85 -65 -77 -74 6 -7
16 -11 23 -8 23 9 44 -31 76 -141 17 -60 65 -213 106 -338 42 -126 74 -230 71
-233 -2 -3 -55 26 -118 64 -127 76 -238 139 -409 234 -103 57 -115 66 -118 93
-2 17 -7 34 -12 38 -6 7 -93 -61 -176 -138 -123 -114 -134 -131 -70 -119 27 5
38 1 57 -19 126 -129 471 -481 583 -595 121 -122 141 -147 141 -174 0 -17 5
-33 12 -35 15 -5 185 147 180 161 -2 6 -16 10 -31 8 -30 -4 -36 1 -201 182
-55 61 -135 148 -178 195 -118 128 -180 201 -170 201 25 0 609 -329 732 -413
36 -25 43 -27 36 -11 -54 129 -259 793 -253 821 2 7 104 -126 228 -295 189
-258 225 -312 225 -341 0 -19 5 -36 11 -38 15 -5 189 115 189 129 0 7 -14 15
-31 20 -32 8 -31 7 -229 298 -51 74 -161 234 -244 355 -150 217 -152 221 -146
263 8 52 -2 53 -70 6z"/>
<path d="M10196 11295 c-148 -41 -282 -209 -294 -367 -7 -101 11 -138 130
-266 117 -125 138 -155 138 -199 0 -61 -79 -123 -157 -123 -53 0 -131 39 -172
85 -77 88 -114 227 -76 282 34 48 -7 27 -118 -60 -64 -51 -116 -95 -117 -99 0
-5 9 -8 19 -8 15 0 24 -15 41 -64 46 -140 121 -231 239 -289 60 -29 74 -32
156 -32 118 1 181 30 281 129 91 92 128 164 128 256 0 101 -31 151 -203 329
-51 54 -81 99 -81 124 0 31 30 77 63 97 69 42 170 15 257 -70 60 -58 86 -108
101 -194 10 -58 9 -69 -6 -92 -9 -14 -14 -28 -12 -30 6 -6 263 122 271 135 3
5 -5 12 -18 15 -18 4 -30 20 -45 61 -79 211 -200 337 -365 381 -62 17 -96 16
-160 -1z"/>
<path d="M6145 11170 c-333 -19 -814 -113 -1179 -231 -647 -209 -1290 -608
-1784 -1108 -454 -458 -823 -1041 -1034 -1631 -129 -360 -234 -838 -268 -1222
-13 -145 -13 -531 0 -676 40 -451 164 -972 329 -1386 45 -113 182 -397 238
-497 282 -493 676 -961 1093 -1295 622 -499 1265 -793 2060 -944 548 -104
1106 -102 1638 5 587 119 1045 290 1478 551 168 101 458 304 579 405 350 292
595 565 877 974 385 558 634 1233 740 2005 20 146 23 206 23 520 -1 313 -3
375 -23 520 -38 278 -110 608 -188 859 -29 94 -36 132 -38 215 -3 125 -23 190
-82 262 l-44 54 14 53 c22 78 28 165 16 227 -17 91 -56 155 -149 250 -94 95
-182 148 -286 171 -40 9 -59 19 -71 38 -134 208 -456 564 -694 767 -58 49
-107 91 -110 95 -13 14 -285 213 -365 267 -431 288 -877 484 -1395 612 -514
127 -901 166 -1375 140z m750 -444 c405 -59 726 -143 1055 -276 132 -53 369
-168 467 -226 41 -24 77 -44 79 -44 10 0 295 -188 343 -226 2 -2 -11 -20 -28
-40 -18 -20 -43 -61 -56 -91 -55 -124 -42 -261 52 -543 62 -184 40 -431 -88
-1020 -21 -96 -12 -268 17 -338 7 -19 11 -40 6 -47 -4 -7 -52 -61 -107 -120
-97 -104 -296 -280 -386 -340 -24 -16 -69 -48 -99 -70 -30 -23 -106 -70 -169
-105 l-114 -64 -26 30 c-14 16 -39 47 -56 69 -133 172 -364 408 -541 551 l-91
73 -7 96 c-4 54 -5 99 -3 102 3 2 22 -4 44 -15 74 -38 246 -85 333 -91 204
-14 305 29 371 159 43 84 36 287 -12 382 -10 20 -19 44 -19 53 0 25 -50 127
-76 156 -22 23 -23 29 -14 79 14 75 12 276 -4 335 -37 139 -141 271 -257 325
-108 50 -245 71 -327 48 -7 -2 -26 29 -46 79 -98 238 -288 407 -466 414 -130
6 -255 -46 -356 -146 -54 -54 -70 -65 -98 -65 -62 0 -183 -28 -236 -55 -256
-130 -253 -444 7 -749 18 -22 33 -45 33 -52 0 -7 -34 -35 -75 -62 -76 -48 -76
-48 -129 -39 -75 14 -214 -11 -300 -53 -83 -41 -190 -139 -236 -216 -56 -96
-71 -97 -100 -9 -52 155 -172 271 -323 311 -86 22 -220 3 -311 -45 -65 -35
-148 -126 -188 -209 -32 -65 -33 -71 -33 -192 0 -69 4 -137 8 -152 9 -26 9
-26 -60 -35 -164 -19 -299 1 -428 65 -61 30 -76 34 -126 29 -53 -5 -62 -2
-118 32 -78 48 -98 66 -133 120 -23 38 -28 55 -28 110 0 131 82 247 315 449
73 64 3 15 -90 -63 -256 -212 -351 -361 -315 -495 15 -56 95 -135 177 -175 34
-17 62 -34 62 -38 1 -5 -10 -28 -25 -52 l-25 -44 -37 16 c-206 86 -348 195
-409 313 -24 47 -28 67 -28 140 0 69 5 97 25 145 37 86 88 160 175 248 41 42
72 77 67 77 -14 0 -182 -166 -233 -230 -92 -117 -148 -258 -135 -345 15 -98
81 -191 202 -283 52 -40 221 -122 302 -148 52 -16 62 -23 62 -42 0 -54 87
-270 126 -313 8 -8 14 -19 14 -23 0 -11 65 -108 134 -201 136 -183 317 -377
516 -554 52 -47 97 -88 100 -91 23 -28 340 -260 465 -340 129 -82 394 -219
515 -266 88 -34 280 -94 302 -94 5 0 29 -9 54 -20 24 -11 56 -25 70 -30 14 -6
24 -15 22 -21 -12 -35 -401 -203 -519 -224 l-36 -7 -16 69 c-22 98 -52 172
-99 244 -299 464 -1133 664 -1853 444 -130 -40 -332 -135 -439 -207 -33 -23
-108 -89 -166 -147 -87 -87 -113 -122 -152 -196 -25 -49 -53 -113 -61 -142
-37 -126 -29 -298 20 -420 116 -290 454 -525 878 -612 134 -27 335 -51 432
-51 80 0 341 31 426 49 46 11 48 10 107 -30 98 -67 185 -93 310 -94 105 0 105
0 200 46 52 25 115 61 140 80 29 22 91 51 170 78 340 119 635 304 915 576 70
67 211 227 258 293 22 28 43 52 49 52 5 0 44 -17 86 -37 337 -162 556 -362
634 -579 26 -75 36 -238 18 -326 -26 -135 -78 -252 -180 -407 -90 -137 -310
-395 -324 -380 -2 2 -14 24 -26 49 -41 80 -96 153 -186 245 -155 158 -291 240
-399 239 -71 0 -111 -18 -148 -68 -38 -49 -61 -144 -51 -209 5 -29 8 -56 9
-61 0 -5 -28 -19 -63 -30 -119 -40 -174 -111 -174 -221 0 -70 21 -121 74 -174
35 -36 113 -77 166 -87 38 -7 39 -13 7 -48 -69 -75 -50 -171 56 -277 79 -79
137 -104 227 -97 156 11 326 172 468 443 l42 80 99 2 c181 3 277 11 383 33
652 131 1059 596 1202 1370 31 168 33 538 5 695 -29 155 -73 320 -117 435 -22
57 -36 107 -32 110 4 4 32 12 62 19 67 16 250 71 345 105 165 57 428 186 585
285 162 103 147 99 226 62 38 -17 96 -38 129 -46 184 -47 486 -18 665 65 128
60 171 85 217 127 25 24 48 41 51 39 6 -7 30 -199 43 -354 15 -178 7 -567 -16
-752 -16 -134 -62 -389 -91 -505 -46 -183 -145 -489 -194 -600 -57 -127 -155
-333 -184 -383 -20 -35 -36 -66 -36 -68 0 -13 -172 -282 -250 -390 -258 -359
-582 -683 -925 -926 -137 -97 -359 -238 -374 -238 -6 0 -11 -4 -11 -10 0 -5
-5 -10 -11 -10 -6 0 -46 -19 -88 -43 -305 -170 -768 -333 -1154 -406 -316 -60
-383 -66 -767 -66 -386 0 -471 7 -778 66 -206 39 -404 94 -622 173 -369 133
-767 345 -1050 560 -188 144 -234 181 -350 287 -156 144 -295 295 -436 477
-104 134 -264 367 -319 467 -60 108 -125 228 -125 231 0 2 -26 58 -58 126 -32
68 -69 150 -81 183 -13 33 -31 80 -41 105 -10 25 -36 101 -58 170 -133 413
-202 843 -202 1259 0 489 93 988 272 1461 22 58 49 125 60 150 79 178 165 348
218 434 22 37 40 69 40 73 0 15 218 329 301 433 177 224 297 351 464 499 524
461 1098 769 1745 935 205 52 339 77 610 111 158 20 737 14 895 -9z m-137
-873 c89 -43 179 -124 294 -265 83 -101 84 -102 210 -142 145 -47 251 -114
318 -201 53 -69 84 -152 110 -297 23 -131 34 -181 45 -198 11 -17 63 -238 76
-321 11 -74 8 -113 -17 -190 -39 -121 -173 -154 -419 -105 -71 15 -153 33
-181 41 l-51 15 -7 87 c-12 175 -25 246 -53 302 -38 78 -152 238 -205 287
-137 129 -352 216 -539 216 -81 1 -91 -2 -158 -37 -39 -21 -73 -36 -74 -34
-27 36 -106 176 -132 231 -68 149 -78 242 -33 318 41 69 94 107 233 165 50 21
97 43 105 50 26 20 163 78 225 96 101 29 166 25 253 -18z m2502 -6 c165 -76
277 -235 316 -447 23 -131 14 -133 -31 -5 -67 187 -170 317 -303 382 -73 36
-79 38 -184 38 -59 0 -108 3 -108 7 0 8 52 37 90 49 47 16 161 3 220 -24z
m827 -753 c217 -49 382 -200 400 -364 6 -58 -4 -113 -17 -90 -4 8 -11 33 -15
55 -10 61 -64 154 -121 211 -53 52 -133 97 -219 121 -72 20 -247 27 -339 14
-44 -6 -81 -9 -84 -7 -7 8 75 46 131 61 70 19 181 18 264 -1z m-3712 -63 c288
-69 469 -195 649 -450 65 -93 66 -95 60 -144 -9 -65 -11 -101 -13 -224 0 -57
-5 -103 -10 -103 -5 0 -23 24 -39 53 -110 191 -337 364 -574 436 -82 26 -193
51 -221 51 -13 0 -48 25 -88 63 -36 34 -82 71 -102 82 -20 11 -37 22 -37 25 1
3 55 45 120 94 66 49 129 100 141 112 27 29 16 28 114 5z m-1541 -263 c92 -27
192 -112 236 -203 31 -64 28 -70 -50 -97 l-71 -26 -13 32 c-45 108 -212 137
-295 52 -36 -37 -51 -81 -51 -147 l0 -47 -76 -17 c-41 -9 -81 -14 -89 -11 -20
7 -29 104 -15 170 13 62 58 157 93 194 55 58 172 110 256 111 18 1 52 -4 75
-11z m1106 -95 c104 -52 189 -141 232 -243 99 -237 31 -493 -170 -640 l-64
-47 -102 -6 c-55 -3 -125 -13 -154 -22 l-53 -16 -52 32 c-203 124 -313 346
-277 557 17 103 78 222 148 288 100 96 202 135 342 131 74 -2 95 -7 150 -34z
m4345 -168 c124 -33 205 -87 244 -163 20 -39 42 -137 33 -146 -2 -3 -22 21
-43 54 -96 149 -276 231 -542 246 -64 4 -115 9 -113 12 25 25 325 23 421 -3z
m-5110 -225 c14 -22 -8 -58 -48 -78 -23 -12 -65 -35 -93 -51 -56 -31 -194 -95
-284 -131 -30 -11 -64 -25 -75 -30 -11 -5 -33 -11 -50 -13 -48 -8 -127 -32
-121 -37 2 -3 -12 -5 -32 -6 -20 0 -91 -6 -157 -13 -66 -7 -151 -13 -190 -13
-63 0 -239 22 -305 38 -20 4 -22 3 -10 -5 13 -9 13 -11 -1 -11 -21 0 -52 45
-72 104 -35 103 -18 120 77 76 182 -83 464 -79 811 10 86 22 359 107 465 146
76 27 77 27 85 14z m1818 -324 c54 -110 91 -235 112 -377 18 -127 18 -217 1
-362 -10 -91 -8 -144 7 -127 14 18 37 100 52 190 10 58 21 109 25 113 4 4 54
-27 111 -70 125 -93 287 -249 273 -263 -9 -9 -168 -70 -251 -96 -26 -8 -45 -9
-48 -3 -7 11 -121 65 -157 74 -24 6 -26 2 -53 -72 -39 -110 -102 -233 -120
-233 -8 0 -25 -12 -38 -27 -12 -15 -60 -67 -107 -116 -202 -212 -423 -317
-668 -317 -99 0 -98 11 3 30 302 56 557 260 718 575 89 173 148 390 163 595
13 191 -32 446 -108 605 l-19 40 30 -34 c16 -18 50 -75 74 -125z m3082 -96
c90 -28 149 -59 211 -108 83 -66 138 -172 119 -232 -6 -18 -11 -14 -36 35 -94
181 -274 284 -529 303 -98 8 -103 9 -70 20 54 18 222 8 305 -18z m-1113 -385
c37 -54 68 -104 68 -111 0 -33 -271 -247 -431 -340 -61 -35 -112 -64 -114 -64
-3 0 -28 -11 -57 -24 -185 -84 -573 -181 -863 -216 -44 -5 -129 -17 -188 -26
-134 -20 -149 -16 -164 52 -6 27 -11 50 -10 51 1 1 70 15 152 32 217 44 308
65 426 100 250 73 479 162 598 233 34 21 65 38 68 38 7 0 148 106 194 147 24
21 87 82 139 136 52 53 99 96 105 94 5 -2 40 -48 77 -102z m-3551 -460 c70
-25 129 -58 129 -72 0 -21 -48 -141 -76 -192 -29 -51 -77 -91 -110 -91 -24 0
-62 34 -96 86 -37 57 -108 201 -108 218 0 8 23 26 52 40 61 30 141 35 209 11z
m-1306 -375 c210 -19 387 -64 554 -139 136 -61 238 -128 327 -216 87 -87 125
-141 166 -242 30 -72 32 -87 32 -193 0 -93 -4 -127 -22 -177 -96 -271 -395
-505 -785 -613 -387 -108 -862 -87 -1212 55 -285 115 -469 280 -553 493 -22
58 -26 82 -26 182 0 108 2 120 33 192 62 147 152 256 296 363 298 219 762 334
1190 295z m3781 -132 c-12 -127 -43 -224 -99 -317 -95 -156 -219 -268 -382
-346 -140 -66 -389 -143 -401 -123 -11 18 18 33 186 93 268 97 451 237 544
418 46 88 45 94 -14 221 -47 100 -45 105 30 106 25 1 63 5 85 9 22 5 44 9 49
10 5 0 6 -31 2 -71z m129 -313 c43 -186 49 -248 49 -552 1 -161 4 -293 7 -293
7 0 99 79 116 100 11 13 12 12 13 -5 0 -22 -68 -92 -164 -169 -71 -57 -220
-130 -297 -147 -88 -18 -247 -7 -344 26 -114 39 -135 51 -135 80 0 14 2 25 4
25 3 0 40 -14 83 -30 150 -58 282 -73 398 -45 93 22 154 52 166 83 17 44 24
395 10 492 -19 128 -41 243 -51 262 -7 12 -2 33 15 70 14 29 25 59 25 66 0 13
28 100 50 157 l12 30 10 -25 c5 -13 20 -70 33 -125z m-555 -1188 c180 -51 315
-37 477 49 35 18 65 29 67 25 3 -5 1 -23 -4 -42 -13 -43 -12 -58 0 -39 5 8 10
10 10 4 0 -6 -9 -19 -20 -29 -25 -23 -26 -53 -3 -51 12 1 19 -7 21 -23 2 -15
0 -21 -7 -17 -6 4 -11 5 -11 2 0 -3 4 -7 9 -11 11 -6 54 83 46 95 -3 4 2 14
11 21 8 7 22 26 30 43 11 25 13 26 8 6 -3 -14 -24 -63 -45 -108 -21 -46 -39
-87 -39 -92 0 -4 -7 -13 -15 -20 -8 -6 -13 -15 -12 -19 3 -10 -143 -231 -152
-231 -4 0 -14 -12 -23 -27 -32 -54 -186 -203 -210 -203 -13 0 -63 7 -113 16
-177 30 -282 107 -334 243 l-20 55 26 42 c15 23 31 40 35 38 4 -3 5 2 2 10 -3
8 1 30 10 48 20 39 66 209 66 242 0 54 7 57 73 22 34 -18 87 -40 117 -49z
m-1396 -404 c4 -5 11 -8 14 -8 12 -1 86 -43 111 -63 l24 -20 -49 3 c-27 2 -62
6 -79 9 -16 2 -35 0 -42 -6 -8 -7 -17 -7 -25 -1 -7 5 -30 9 -50 7 -21 -1 -38
-1 -38 1 0 16 14 34 23 28 6 -4 7 -1 3 6 -14 21 24 51 64 51 20 0 40 -3 44 -7z
m1051 -196 c49 -84 152 -152 253 -166 l57 -8 -59 -27 c-168 -77 -429 -139
-626 -148 -65 -3 -65 -3 -68 25 -3 24 15 46 134 165 75 75 164 172 198 215
l61 79 11 -44 c6 -24 23 -65 39 -91z"/>
<path d="M5775 8285 c-84 -90 -88 -219 -9 -322 58 -76 190 -99 271 -47 73 48
121 148 109 231 -5 35 -36 114 -52 132 -2 2 -26 -6 -55 -18 -69 -30 -117 -22
-171 30 -23 21 -44 39 -46 39 -3 0 -24 -20 -47 -45z m80 -120 c31 -30 32 -71
3 -102 -35 -37 -79 -29 -104 19 -25 49 8 105 64 107 7 1 24 -10 37 -24z"/>
<path d="M11279 3948 c-3 -37 -1 -270 3 -273 2 -3 20 0 38 5 79 23 177 -46
214 -148 10 -29 22 -52 27 -52 5 0 19 15 30 33 29 47 22 152 -16 226 -36 72
-125 164 -188 196 -55 27 -106 33 -108 13z"/>
<path d="M11027 3733 c-2 -5 -2 -64 2 -133 l6 -125 38 3 c54 5 119 -36 162
-101 18 -29 37 -64 41 -80 14 -60 47 -41 65 39 10 46 10 63 -5 117 -29 105
-91 191 -180 249 -56 36 -118 51 -129 31z"/>
<path d="M1399 3716 c-124 -44 -233 -178 -246 -300 -4 -42 -2 -54 13 -67 18
-15 29 -14 149 6 72 12 130 26 129 31 0 5 -8 27 -18 49 -35 78 3 171 95 227
27 17 49 34 49 39 0 12 -60 29 -99 29 -20 -1 -52 -7 -72 -14z"/>
<path d="M1664 3496 c-61 -28 -140 -107 -178 -176 -57 -104 -44 -221 22 -200
15 5 69 21 120 36 85 25 93 29 86 48 -3 12 -9 42 -11 68 -6 61 17 109 86 177
62 61 58 71 -24 71 -32 0 -69 -9 -101 -24z"/>
<path d="M10282 3181 c-59 -38 -61 -42 -52 -67 38 -99 214 -408 457 -803 246
-399 352 -552 382 -550 19 0 154 82 158 96 2 6 -25 44 -60 86 -257 301 -527
726 -772 1211 -17 33 -35 61 -41 63 -5 2 -38 -15 -72 -36z"/>
<path d="M2587 2938 c-66 -87 -349 -550 -492 -803 -105 -186 -235 -454 -235
-485 0 -26 12 -34 198 -127 288 -146 381 -188 391 -177 11 10 57 213 67 293
l7 54 -29 -6 c-16 -3 -54 -15 -84 -26 -105 -39 -196 -20 -232 49 -36 68 -21
153 56 315 96 203 244 429 449 687 64 82 107 145 105 155 -2 15 -146 101 -170
103 -4 0 -18 -15 -31 -32z"/>
<path d="M10098 2567 c-32 -18 -58 -39 -58 -47 0 -8 42 -76 93 -150 261 -382
371 -620 338 -730 -21 -71 -79 -78 -146 -19 -92 81 -295 488 -379 759 -25 83
-28 86 -68 70 -67 -28 -98 -51 -98 -74 0 -83 253 -644 369 -816 95 -142 164
-200 238 -200 84 0 125 39 138 128 4 28 11 55 16 58 17 10 44 -6 61 -36 21
-37 48 -38 103 -7 35 20 40 27 43 63 5 64 -61 201 -266 559 -161 282 -292 476
-320 475 -4 -1 -33 -15 -64 -33z"/>
<path d="M8449 2309 c-32 -63 -66 -209 -79 -344 -15 -141 -8 -394 14 -535 50
-315 149 -638 210 -689 14 -11 31 -10 109 10 50 12 96 26 100 30 5 4 -21 44
-58 90 -80 102 -123 186 -131 260 -5 47 -3 63 20 106 30 60 65 90 160 134 173
81 236 37 267 -186 7 -47 9 -127 5 -191 -5 -87 -3 -114 8 -123 10 -8 38 -3
117 24 57 19 106 35 108 35 12 0 -13 139 -40 225 -114 366 -311 755 -488 964
-110 132 -233 231 -285 231 -9 0 -25 -19 -37 -41z m225 -327 c65 -66 148 -187
172 -248 21 -54 9 -76 -53 -99 -26 -9 -89 -39 -140 -66 -50 -27 -99 -49 -108
-49 -26 0 -37 49 -37 170 0 133 14 233 44 302 28 66 49 64 122 -10z"/>
<path d="M9500 2266 c-14 -8 -93 -42 -175 -76 -83 -34 -154 -65 -159 -70 -10
-10 56 -137 98 -186 l32 -37 28 38 c33 43 101 77 135 68 23 -6 23 -8 17 -97
-17 -259 -18 -482 -2 -586 20 -132 61 -267 84 -278 29 -15 482 170 482 196 0
24 -55 107 -132 196 -4 5 -25 -10 -47 -36 -43 -48 -140 -102 -166 -92 -44 17
-57 214 -33 550 l11 172 -27 78 c-16 44 -39 100 -52 127 -26 51 -47 58 -94 33z"/>
<path d="M3155 2253 c-68 -35 -108 -93 -120 -174 -7 -47 13 -119 34 -119 5 0
19 16 31 35 41 67 100 92 151 65 47 -26 64 -125 31 -190 -17 -35 -18 -35 -99
-42 -186 -15 -334 -138 -399 -329 -57 -169 -6 -288 159 -369 82 -40 203 -80
244 -80 28 0 31 6 58 109 13 47 53 185 89 306 152 501 161 608 62 732 -53 66
-170 94 -241 56z m37 -628 c10 -22 5 -45 -31 -154 -46 -141 -66 -171 -112
-171 -62 0 -104 78 -88 164 14 74 42 118 103 160 53 36 112 36 128 1z"/>
<path d="M4554 2195 c-170 -85 -320 -360 -409 -750 -33 -143 -45 -375 -25
-477 38 -195 137 -309 294 -338 211 -39 369 123 392 403 9 120 0 136 -35 61
-54 -114 -118 -164 -211 -164 -195 0 -306 260 -240 565 49 229 144 401 253
457 60 30 131 21 169 -21 25 -28 28 -39 28 -100 0 -80 13 -92 73 -68 50 21 79
75 85 158 7 100 -11 153 -72 214 -87 86 -204 109 -302 60z"/>
<path d="M5225 1712 c-96 -32 -152 -158 -120 -269 9 -31 24 -57 35 -63 17 -9
22 -7 30 17 36 97 54 117 107 117 26 0 42 -7 59 -27 61 -71 48 -207 -20 -207
-91 -1 -229 -134 -282 -272 -24 -62 -29 -88 -29 -173 0 -90 3 -106 28 -157 32
-65 88 -109 172 -134 56 -17 229 -30 267 -21 l25 7 7 177 c3 98 9 304 13 459
6 269 5 284 -16 352 -26 87 -72 150 -131 180 -43 22 -103 27 -145 14z m115
-632 c23 -23 24 -35 9 -190 -12 -131 -24 -160 -70 -160 -44 0 -66 15 -90 62
-46 91 -2 248 81 290 44 22 46 22 70 -2z"/>
<path d="M7291 1699 c-85 -25 -131 -95 -131 -197 0 -89 43 -172 90 -172 4 0
11 23 14 52 12 88 36 118 93 118 50 0 113 -92 113 -165 0 -28 -8 -36 -65 -72
-94 -60 -170 -199 -182 -333 -12 -129 40 -290 111 -343 76 -57 155 -69 301
-43 97 17 134 31 141 51 4 9 -1 41 -9 73 -9 31 -37 161 -62 287 -91 459 -129
582 -206 670 -56 63 -141 94 -208 74z m224 -622 c8 -13 25 -85 37 -160 26
-168 22 -187 -44 -187 -51 1 -77 20 -107 78 -42 82 -20 234 40 276 32 22 56
20 74 -7z"/>
<path d="M6049 1590 c-31 -33 -61 -60 -67 -60 -11 0 -17 17 -24 65 -3 17 -12
20 -69 23 -56 2 -68 0 -74 -15 -11 -28 -26 -593 -23 -866 2 -207 5 -249 18
-257 18 -12 167 -13 174 -2 3 5 -2 53 -11 108 -11 71 -16 176 -17 369 -1 231
2 279 17 335 20 74 49 110 87 110 36 0 60 -29 67 -79 6 -46 22 -52 53 -21 56
56 73 199 32 277 -24 46 -56 73 -87 73 -11 0 -43 -25 -76 -60z"/>
<path d="M6456 1627 c-16 -16 -27 -42 -32 -73 -13 -87 26 -981 46 -1056 l11
-38 84 0 c100 0 93 -18 65 170 -22 149 -24 190 -11 190 5 0 27 -25 50 -55 32
-42 48 -55 68 -55 57 0 149 140 189 285 25 93 30 256 10 355 -28 139 -81 221
-170 268 -45 23 -65 27 -168 30 -114 4 -118 3 -142 -21z m247 -192 c43 -20 73
-67 93 -145 44 -172 -37 -390 -145 -390 -40 0 -52 40 -63 198 -12 187 -1 308
32 334 27 22 43 22 83 3z"/>
</g>
</svg>
